{"title":"Fringe S03E11 (MKV WEB-DL DD5.1 NL Subs) Hornigold TBS","uid":6143855,"size":1443044619,"categoryP":"video","categoryS":"tv_shows","magnet":"?xt=urn:btih:1bb97e7ec587f2215efd741d4e7dc09d4ff60840&amp;dn=Fringe+S03E11+%28MKV+WEB-DL+DD5.1+NL+Subs%29+Hornigold+TBS&amp;tr=udp%3A%2F%2Ftracker.openbittorrent.com%3A80&amp;tr=udp%3A%2F%2Fopen.demonii.com%3A1337&amp;tr=udp%3A%2F%2Ftracker.coppersurfer.tk%3A6969&amp;tr=udp%3A%2F%2Fexodus.desync.com%3A6969","seeders":1,"leechers":1,"uploader":"Hornigold","files":-1,"time":1296596756,"description":"Fringe S3E11 WEB-DL DD5.1 ENG + NL Subs\n\n[img]http://leetleech.org/images/15191335726541510234.png[/img]\n\nVerenigde Staten / Canada ~ 60 minuten ~ geschreven door J.J. Abrams, Alex Kurtzman &amp; Roberto Orci ~ met Anna Torv, Joshua Jackson, Peter Bishop, Lance Reddick, Blair Brown, Jasika Nicole &amp; John Noble.\n\nWe gaan verder met het verkennen van een mysterieuze mythologie die miljoenen kijkers in zijn hypnotische greep houdt. Dit tweede seizoen van Fringe bestaat uit 4 dvd's met in totaal 22 afleveringen. Het bevat verschillende werelden boordevol spanning, gedaanteverwisselaars, ingevroren hoofden, wezens die zich in je buik nestelen en mensen die voor je ogen in as veranderen. De overkoepelende verhaallijn volgt drie geheime FBI-agenten tijdens een verbazingwekkend onderzoek naar een parallelle wereld die onze wereld dreigt te vernietigen.\n\nBestandsformaat: .MKV\nBestandsgrootte: 1,34 GB\nTaal: Engels in DD5.1\nOndertitelingen: Custom Nederlands (thanks TheThom voor het topwerk weer!) (in te stellen)\nCategorie : Serie\nFormaat : NVT\nBron : WEB-DL\nMenu: Nee\nExtra's: Nee\nGenre : Mysterie ~ Drama ~ Horror\nWeblink : http://www.imdb.com/title/tt1119644/\n\n~~~~~~~~~~~~~~~~~~~~~~\n[img]http://leetleech.org/images/27117070819105411783.png[/img]\n\nUSA / Canada ~ 60 minutes ~ written by J.J. Abrams, Alex Kurtzman &amp; Roberto Orci ~ with Anna Torv, Joshua Jackson, Peter Bishop, Lance Reddick, Blair Brown, Jasika Nicole &amp; John Noble.\n\nThe FBI teams up with a formerly-institutionalized scientist - who was performing experiments on the fringe of real science - and his son to investigate weird crimes that are seemingly part of a larger pattern, and may be connected with a global company called Massive Dynamics.\n\nFile Format: .MKV\nFile size: 1.34 GB\nLanguage: English in DD5.1\nSubtitles: Dutch (custom) (selectable)\nCategory : Series\nFormat : -\nSource : WEB-DL\nMenu: No\nExtras: No\nGenre : Drama ~ Mystery ~ Horror\nWeblink : http://www.imdb.com/title/tt1119644/\n\n[img]http://leetleech.org/images/40912764398313373074.png[/img]\n\nVideo and audio information:\n~~~~~~~~~~~~~~~~~~~~~~\nVideo\nID                               : 1\nFormat                           : AVC\nFormat/Info                      : Advanced Video Codec\nFormat profile                   : &lt;a class=&quot;__cf_email__&quot; href=&quot;/cdn-cgi/l/email-protection&quot; data-cfemail=&quot;8cc4e5ebe4ccc0bfa2bd&quot;&gt;[email&amp;#160;protected]&lt;/a&gt;&lt;script cf-hash='f9e31' type=&quot;text/javascript&quot;&gt;\n/* &lt;![CDATA[ */!function(){try{var t=&quot;currentScript&quot;in document?document.currentScript:function(){for(var t=document.getElementsByTagName(&quot;script&quot;),e=t.length;e--;)if(t[e].getAttribute(&quot;cf-hash&quot;))return t[e]}();if(t&amp;&amp;t.previousSibling){var e,r,n,i,c=t.previousSibling,a=c.getAttribute(&quot;data-cfemail&quot;);if(a){for(e=&quot;&quot;,r=parseInt(a.substr(0,2),16),n=2;a.length-n;n+=2)i=parseInt(a.substr(n,2),16)^r,e+=String.fromCharCode(i);e=document.createTextNode(e),c.parentNode.replaceChild(e,c)}}}catch(u){}}();/* ]]&gt; */&lt;/script&gt;\nFormat settings, CABAC           : No\nFormat settings, ReFrames        : 2 frames\nFormat settings, GOP             : M=2, N=26\nMuxing mode                      : Container profile=&lt;a class=&quot;__cf_email__&quot; href=&quot;/cdn-cgi/l/email-protection&quot; data-cfemail=&quot;a6f3c8cdc8c9d1c8e6958897&quot;&gt;[email&amp;#160;protected]&lt;/a&gt;&lt;script cf-hash='f9e31' type=&quot;text/javascript&quot;&gt;\n/* &lt;![CDATA[ */!function(){try{var t=&quot;currentScript&quot;in document?document.currentScript:function(){for(var t=document.getElementsByTagName(&quot;script&quot;),e=t.length;e--;)if(t[e].getAttribute(&quot;cf-hash&quot;))return t[e]}();if(t&amp;&amp;t.previousSibling){var e,r,n,i,c=t.previousSibling,a=c.getAttribute(&quot;data-cfemail&quot;);if(a){for(e=&quot;&quot;,r=parseInt(a.substr(0,2),16),n=2;a.length-n;n+=2)i=parseInt(a.substr(n,2),16)^r,e+=String.fromCharCode(i);e=document.createTextNode(e),c.parentNode.replaceChild(e,c)}}}catch(u){}}();/* ]]&gt; */&lt;/script&gt;\nCodec ID                         : V_MPEG4/ISO/AVC\nDuration                         : 43mn 9s\nBit rate mode                    : Variable\nBit rate                         : 3 986 Kbps\nWidth                            : 1 280 pixels\nHeight                           : 720 pixels\nDisplay aspect ratio             : 16:9\nFrame rate                       : 23.976 fps\nColor space                      : YUV\nChroma subsampling               : 4:2:0\nBit depth                        : 8 bits\nScan type                        : Progressive\nBits/(Pixel*Frame)               : 0.180\nStream size                      : 1.20 GiB (89%)\nTitle                            : 720p WEB-DL H264\nLanguage                         : English\nColor primaries                  : BT.709-5, BT.1361, IEC 61966-2-4, SMPTE RP177\nTransfer characteristics         : BT.709-5, BT.1361\nMatrix coefficients              : BT.709-5, BT.1361, IEC 61966-2-4 709, SMPTE RP177\n\nAudio\nID                               : 2\nFormat                           : AC-3\nFormat/Info                      : Audio Coding 3\nMode extension                   : CM (complete main)\nCodec ID                         : A_AC3\nDuration                         : 43mn 9s\nBit rate mode                    : Constant\nBit rate                         : 384 Kbps\nChannel(s)                       : 6 channels\nChannel positions                : Front: L C R, Side: L R, LFE\nSampling rate                    : 48.0 KHz\nBit depth                        : 16 bits\nStream size                      : 119 MiB (9%)\nTitle                            : English DD5.1 @ 384 Kb/s\nLanguage                         : English\n\n~~~~~~~~~~~~~~~\nHornigold TBS\n~~~~~~~~~~~~~~~","torrent":{"xt":"urn:btih:1bb97e7ec587f2215efd741d4e7dc09d4ff60840","amp;dn":"Fringe+S03E11+%28MKV+WEB-DL+DD5.1+NL+Subs%29+Hornigold+TBS","amp;tr":["udp%3A%2F%2Ftracker.openbittorrent.com%3A80","udp%3A%2F%2Fopen.demonii.com%3A1337","udp%3A%2F%2Ftracker.coppersurfer.tk%3A6969","udp%3A%2F%2Fexodus.desync.com%3A6969"],"infoHash":"1bb97e7ec587f2215efd741d4e7dc09d4ff60840","infoHashBuffer":{"type":"Buffer","data":[27,185,126,126,197,135,242,33,94,253,116,29,78,125,192,157,79,246,8,64]},"announce":[],"urlList":[]}}